<svg width="14" height="14" viewBox="0 0 14 14" fill="none" xmlns="http://www.w3.org/2000/svg">
<path d="M12.4442 6.60577C11.7166 6.35487 11.3152 6.20433 11.3152 5.90325C11.3152 5.70252 11.5912 5.5018 12.1933 5.5018C12.7704 5.5018 13.1468 5.62725 13.5733 5.72761V5.12545C13.1468 5.05018 12.921 5 12.2435 5C10.989 5 10.1611 5.37635 10.1611 6.00361C10.1611 6.60577 10.8385 6.88176 11.7919 7.23302C12.4944 7.48392 12.7453 7.63446 12.7453 7.88537C12.7453 8.16136 12.4944 8.38717 11.8421 8.38717C11.265 8.38717 10.5374 8.28681 10.1611 8.13627V8.78861C10.6629 8.86388 11.0894 8.91406 11.7417 8.91406C13.2973 8.91406 13.9998 8.46244 13.9998 7.86028C13.9998 7.23302 13.4478 6.95703 12.4442 6.60577ZM8.83129 5.30108C8.45494 5.12545 7.77751 5.02509 7.15026 5.02509H4.81689V8.91406H7.15026C7.75242 8.91406 8.45494 8.8137 8.83129 8.63807C9.73453 8.23663 10.0105 7.58428 10.0105 6.98212C10.0356 6.35487 9.73453 5.70252 8.83129 5.30108ZM6.84918 8.36208H6.09648V5.55198H6.84918C8.00332 5.55198 8.70584 6.05379 8.70584 6.95703C8.70584 7.88537 7.97823 8.36208 6.84918 8.36208Z" fill="white"/>
<path d="M3.21151 6.7814C3.21151 6.7814 4.29038 6.60577 4.29038 5.92834C4.29038 5.27599 3.13624 5 1.90684 5C0.802878 5 0.0752706 5.12545 0.0752706 5.12545V5.72761C0.57707 5.60216 1.05378 5.5018 1.70612 5.5018C2.40864 5.5018 2.93552 5.70252 2.93552 6.00361C2.93552 6.35487 2.40864 6.55559 1.2545 6.55559H0.752699V7.10757H1.2545C2.45882 7.10757 3.13624 7.2832 3.13624 7.73483C3.13624 8.13627 2.53409 8.36208 1.7563 8.36208C1.07887 8.36208 0.476709 8.21154 0 8.08609V8.73843C0.2509 8.78861 0.878148 8.91406 2.03229 8.91406C3.33696 8.91406 4.46601 8.48753 4.46601 7.75992C4.46601 7.13266 3.66313 6.7814 3.21151 6.7814Z" fill="white"/>
</svg>
