<svg width="14" height="14" viewBox="0 0 14 14" fill="none" xmlns="http://www.w3.org/2000/svg">
<path d="M10.4154 5.36539L11.5767 3.35364C11.6423 3.24086 11.6026 3.0976 11.4914 3.03206C11.3801 2.96653 11.2353 3.00463 11.1713 3.11741L9.99476 5.15507C9.09709 4.7451 8.08665 4.51649 6.99999 4.51649C5.91334 4.51649 4.90289 4.7451 4.00522 5.15507L2.82865 3.11741C2.76311 3.00463 2.61985 2.96653 2.50707 3.03206C2.39429 3.0976 2.35619 3.24086 2.42172 3.35364L3.58305 5.36539C1.58044 6.45052 0.224031 8.47751 0 10.8505H14C13.776 8.4775 12.4195 6.4505 10.4154 5.36539ZM3.78576 8.88443C3.46113 8.88443 3.19899 8.62077 3.19899 8.29767C3.19899 7.97305 3.46266 7.71091 3.78576 7.71091C4.11038 7.71091 4.37252 7.97457 4.37252 8.29767C4.37405 8.62077 4.11038 8.88443 3.78576 8.88443ZM10.2127 8.88443C9.8881 8.88443 9.62596 8.62077 9.62596 8.29767C9.62596 7.97305 9.88962 7.71091 10.2127 7.71091C10.5373 7.71091 10.7995 7.97457 10.7995 8.29767C10.801 8.62077 10.5373 8.88443 10.2127 8.88443Z" fill="white"/>
</svg>
