<svg width="14" height="14" viewBox="0 0 14 14" fill="none" xmlns="http://www.w3.org/2000/svg">
<g clip-path="url(#clip0_2_192)">
<path d="M9.65833 8.1001H4.34167C3.4456 8.1001 3.07225 6.95406 3.79636 6.42625L3.97151 6.29859C4.2288 6.11104 4.38097 5.81182 4.38097 5.49343V3.57534C4.38097 2.60561 4.91495 1.71468 5.77016 1.25752C6.53927 0.846383 7.46339 0.844144 8.23502 1.25053C9.10814 1.71036 9.65224 2.62043 9.64256 3.60718L9.62409 5.48817C9.62094 5.80944 9.77316 6.11245 10.0328 6.3017L10.2036 6.42623C10.9278 6.95406 10.5544 8.1001 9.65833 8.1001Z" stroke="white" stroke-width="2" stroke-linecap="round" stroke-linejoin="round"/>
<rect x="5.5" y="11" width="3" height="3" rx="1.5" fill="white"/>
</g>
<defs>
<clipPath id="clip0_2_192">
<rect width="14" height="14" fill="white"/>
</clipPath>
</defs>
</svg>
