<svg width="14" height="14" viewBox="0 0 14 14" fill="none" xmlns="http://www.w3.org/2000/svg">
<path d="M3.116 11.5V2.148H7.204C7.88533 2.148 8.492 2.218 9.024 2.358C9.556 2.48867 9.976 2.73133 10.284 3.086C10.6013 3.43133 10.76 3.93067 10.76 4.584C10.76 5.01333 10.662 5.39133 10.466 5.718C10.2793 6.04467 10.0087 6.31533 9.654 6.53C10.0927 6.67933 10.4473 6.922 10.718 7.258C10.998 7.594 11.138 8.04667 11.138 8.616C11.138 9.316 10.9793 9.876 10.662 10.296C10.354 10.716 9.91533 11.024 9.346 11.22C8.77667 11.4067 8.114 11.5 7.358 11.5H3.116ZM5.328 5.844H7.274C7.64733 5.844 7.93667 5.76 8.142 5.592C8.35667 5.41467 8.464 5.18133 8.464 4.892C8.464 4.59333 8.35667 4.36467 8.142 4.206C7.93667 4.038 7.64733 3.954 7.274 3.954H5.328V5.844ZM5.328 9.666H7.372C7.848 9.666 8.20267 9.57267 8.436 9.386C8.67867 9.19 8.8 8.92867 8.8 8.602C8.8 8.27533 8.67867 8.01867 8.436 7.832C8.20267 7.64533 7.848 7.552 7.372 7.552H5.328V9.666Z" fill="white"/>
</svg>
