<svg width="14" height="14" viewBox="0 0 14 14" fill="none" xmlns="http://www.w3.org/2000/svg">
<g clip-path="url(#clip0_1178_5773)">
<path d="M5.125 2.875L4 1M6.25 6.25H7.75M1.75 4.75H3.56348M12.25 4.75H10.4365M1.75 10.75H3.56348M12.25 10.75H10.4365M6.25 9.25H7.75M1.75 7.75H3.25M12.25 7.75H10.75M8.875 2.875L10 1M7 13C4.92894 13 3.25 11.321 3.25 9.25V6.25C3.25 4.17894 4.92894 2.5 7 2.5C9.07105 2.5 10.75 4.17894 10.75 6.25V9.25C10.75 11.321 9.07105 13 7 13Z" stroke="white" stroke-width="2" stroke-linecap="round" stroke-linejoin="round"/>
</g>
<defs>
<clipPath id="clip0_1178_5773">
<rect width="14" height="14" fill="white"/>
</clipPath>
</defs>
</svg>
