<svg width="14" height="14" viewBox="0 0 14 14" fill="none" xmlns="http://www.w3.org/2000/svg">
<g clip-path="url(#clip0_83_9612)">
<rect x="1" y="1.5" width="11" height="11" rx="2" stroke="white" stroke-width="2"/>
<mask id="path-2-inside-1_83_9612" fill="white">
<path d="M10 0.5H13C13.5523 0.5 14 0.947715 14 1.5C14 2.05228 13.5523 2.5 13 2.5H11C10.4477 2.5 10 2.05228 10 1.5V0.5Z"/>
</mask>
<path d="M10 0.5H13C13.5523 0.5 14 0.947715 14 1.5C14 2.05228 13.5523 2.5 13 2.5H11C10.4477 2.5 10 2.05228 10 1.5V0.5Z" fill="white"/>
<path d="M10 0.5V-1.5H8V0.5H10ZM10 2.5H13V-1.5H10V2.5ZM13 0.5H11V4.5H13V0.5ZM12 1.5V0.5H8V1.5H12ZM11 0.5C11.5523 0.5 12 0.947715 12 1.5H8C8 3.15685 9.34315 4.5 11 4.5V0.5ZM12 1.5C12 0.947715 12.4477 0.5 13 0.5V4.5C14.6569 4.5 16 3.15685 16 1.5H12ZM13 2.5C12.4477 2.5 12 2.05228 12 1.5H16C16 -0.156854 14.6569 -1.5 13 -1.5V2.5Z" fill="white" mask="url(#path-2-inside-1_83_9612)"/>
<mask id="path-4-inside-2_83_9612" fill="white">
<path d="M12 0.5H13C13.5523 0.5 14 0.947715 14 1.5V2.5C14 3.05228 13.5523 3.5 13 3.5C12.4477 3.5 12 3.05228 12 2.5V0.5Z"/>
</mask>
<path d="M12 0.5H13C13.5523 0.5 14 0.947715 14 1.5V2.5C14 3.05228 13.5523 3.5 13 3.5C12.4477 3.5 12 3.05228 12 2.5V0.5Z" fill="white"/>
<path d="M12 0.5V-1.5H10V0.5H12ZM12 2.5H13V-1.5H12V2.5ZM12 1.5V2.5H16V1.5H12ZM14 2.5V0.5H10V2.5H14ZM13 1.5C13.5523 1.5 14 1.94772 14 2.5H10C10 4.15685 11.3431 5.5 13 5.5V1.5ZM12 2.5C12 1.94772 12.4477 1.5 13 1.5V5.5C14.6569 5.5 16 4.15685 16 2.5H12ZM13 2.5C12.4477 2.5 12 2.05228 12 1.5H16C16 -0.156854 14.6569 -1.5 13 -1.5V2.5Z" fill="white" mask="url(#path-4-inside-2_83_9612)"/>
</g>
<defs>
<clipPath id="clip0_83_9612">
<rect width="14" height="14" fill="white"/>
</clipPath>
</defs>
</svg>
