<svg width="14" height="14" viewBox="0 0 14 14" fill="none" xmlns="http://www.w3.org/2000/svg">
<path d="M10 12.0002L9.29289 12.7074C9.57889 12.9933 10.009 13.0789 10.3827 12.9241C10.7564 12.7693 11 12.4047 11 12.0002H10ZM2 5.99976C2 4.3429 3.34315 2.99976 5 2.99976V0.999756C2.23858 0.999756 0 3.23833 0 5.99976H2ZM5 8.99976C3.34315 8.99976 2 7.65661 2 5.99976H0C0 8.76118 2.23858 10.9998 5 10.9998V8.99976ZM9 8.99976H5V10.9998H9V8.99976ZM12 5.99976C12 7.65661 10.6569 8.99976 9 8.99976V10.9998C11.7614 10.9998 14 8.76118 14 5.99976H12ZM9 2.99976C10.6569 2.99976 12 4.3429 12 5.99976H14C14 3.23833 11.7614 0.999756 9 0.999756V2.99976ZM5 2.99976H9V0.999756H5V2.99976ZM7.29241 10.7069L9.29289 12.7074L10.7071 11.2931L8.70662 9.29265L7.29241 10.7069ZM11 12.0002V9.87374H9V12.0002H11Z" fill="white"/>
</svg>
