<svg width="14" height="14" viewBox="0 0 14 14" fill="none" xmlns="http://www.w3.org/2000/svg">
<path d="M10.2735 5.875H9.58638C9.38236 5.05994 8.96081 4.32024 8.36961 3.73997C7.77841 3.1597 7.04128 2.76212 6.24197 2.59241C5.44267 2.42269 4.61324 2.48765 3.84793 2.7799C3.08263 3.07214 2.41213 3.57996 1.91264 4.24565C1.41314 4.91134 1.10468 5.70821 1.02229 6.5457C0.939904 7.38319 1.0869 8.22773 1.44658 8.98335C1.80625 9.73898 2.36419 10.3754 3.05698 10.8203C3.74977 11.2651 4.54964 11.5006 5.36571 11.5H10.2735C10.9966 11.5 11.6901 11.2037 12.2014 10.6762C12.7127 10.1488 13 9.43342 13 8.6875C13 7.94158 12.7127 7.22621 12.2014 6.69876C11.6901 6.17132 10.9966 5.875 10.2735 5.875Z" stroke="white" stroke-width="2" stroke-linecap="round" stroke-linejoin="round"/>
</svg>
