<svg width="14" height="14" viewBox="0 0 14 14" fill="none" xmlns="http://www.w3.org/2000/svg">
<g clip-path="url(#clip0_81_18375)">
<path d="M1.25 12.7498L1.72904 12.2708M1.72904 12.2708H3.19999C3.73042 12.2708 4.23913 12.06 4.6142 11.685L10.4475 5.85165M1.72904 12.2708V10.7998C1.72904 10.2694 1.93975 9.76066 2.31482 9.38558L8.14814 3.55227M10.4475 5.85165L9.29783 4.70196L8.14814 3.55227M10.4475 5.85165L11.5972 7.00134M10.4475 5.85165L12.1001 4.19934C12.7351 3.56437 12.7352 2.53478 12.1002 1.89975V1.89975C11.4652 1.26476 10.4356 1.26476 9.80066 1.89975L8.14814 3.55227M8.14814 3.55227L6.99845 2.40257" stroke="white" stroke-width="2" stroke-linecap="round"/>
</g>
<defs>
<clipPath id="clip0_81_18375">
<rect width="14" height="14" fill="white"/>
</clipPath>
</defs>
</svg>
