<svg width="14" height="14" viewBox="0 0 14 14" fill="none" xmlns="http://www.w3.org/2000/svg">
<g clip-path="url(#clip0_646_38239)">
<path d="M13 11V11C13 12.1046 12.1046 13 11 13V13C9.89543 13 9 12.1046 9 11V3C9 1.89543 9.89543 1 11 1V1C12.1046 1 13 1.89543 13 3V3C13 4.10457 12.1046 5 11 5H3C1.89543 5 1 4.10457 1 3V3C1 1.89543 1.89543 1 3 1V1C4.10457 1 5 1.89543 5 3V11C5 12.1046 4.10457 13 3 13V13C1.89543 13 1 12.1046 1 11V11C1 9.89543 1.89543 9 3 9H11C12.1046 9 13 9.89543 13 11Z" stroke="white" stroke-width="2"/>
</g>
<defs>
<clipPath id="clip0_646_38239">
<rect width="14" height="14" fill="white"/>
</clipPath>
</defs>
</svg>
