<svg width="14" height="14" viewBox="0 0 14 14" fill="none" xmlns="http://www.w3.org/2000/svg">
<g clip-path="url(#clip0_2_234)">
<path d="M5.99223 1.2956C6.61495 0.932346 7.38499 0.932346 8.00771 1.2956L11.3934 3.2706C12.0079 3.62902 12.3857 4.28683 12.3857 4.99816V9.00194C12.3857 9.71327 12.0079 10.3711 11.3934 10.7295L8.00771 12.7045C7.38499 13.0678 6.61495 13.0678 5.99223 12.7045L2.60652 10.7295C1.99208 10.3711 1.61426 9.71327 1.61426 9.00194V4.99816C1.61426 4.28683 1.99208 3.62902 2.60652 3.2706L5.99223 1.2956Z" stroke="white" stroke-width="2"/>
<path d="M12.3216 4.33936L7.51464 7.22351C7.19795 7.41352 6.80233 7.41352 6.48564 7.22351L1.67871 4.33936" stroke="white" stroke-width="2"/>
<path d="M7 7V12.8536" stroke="white" stroke-width="2"/>
</g>
<defs>
<clipPath id="clip0_2_234">
<rect width="14" height="14" fill="white"/>
</clipPath>
</defs>
</svg>
