<svg width="14" height="14" viewBox="0 0 14 14" fill="none" xmlns="http://www.w3.org/2000/svg">
<g clip-path="url(#clip0_58_10067)">
<path d="M12.9552 13.7011L12.9552 13.7011L10.2707 11.0165C9.9708 11.2165 9.61046 11.333 9.22303 11.333H7.43183H7.4293H7.42677H3.72762C2.67906 11.333 1.83203 10.4807 1.83203 9.43287V8.72911C0.863414 8.49252 0.144533 7.61905 0.144533 6.57748C0.144533 5.35425 1.13615 4.36263 2.35938 4.36263C3.10764 4.36263 3.76916 4.73377 4.16999 5.30155C4.27554 5.27501 4.38324 5.2539 4.49277 5.23855L0.298993 1.04476L12.9552 13.7011ZM12.9552 13.7011C13.1612 13.9069 13.4951 13.9069 13.701 13.7011L13.7011 13.701M12.9552 13.7011L13.7011 13.701M13.7011 13.701C13.9069 13.4951 13.9069 13.1612 13.7011 12.9552L13.7011 12.9552M13.7011 13.701L13.7011 12.9552M13.7011 12.9552L1.04476 0.298994C1.04476 0.298993 1.04476 0.298992 1.04476 0.298991C0.838824 0.0930451 0.504932 0.0930445 0.298994 0.29899M13.7011 12.9552L0.298994 0.29899M12.3034 8.63448L12.3034 8.63448C12.9665 7.96924 12.9665 6.89011 12.3038 6.22475L8.74578 2.67248L8.74502 2.67175L8.74357 2.67034L8.74358 2.67033C8.61504 2.54137 8.40736 2.54137 8.27882 2.67033C8.14962 2.79995 8.14932 3.01063 8.27792 3.14062C8.27803 3.14072 8.27813 3.14083 8.27824 3.14093L8.27828 3.14097L8.27836 3.14105L10.0034 4.85056L10.0802 4.92671L10.0022 5.00159L9.58019 5.4063C9.41956 5.57793 9.29668 5.82149 9.20409 6.03812C9.20409 6.03813 9.20408 6.03814 9.20408 6.03815L9.05863 6.37873L9.02226 6.4639L8.93311 6.43885L8.57653 6.33866C8.40196 6.28961 8.21733 6.26321 8.02575 6.26321H7.94745H7.90376L7.87287 6.23232L7.02912 5.38857L6.84907 5.20853H7.1037H8.02575C8.15983 5.20853 8.29204 5.21711 8.42191 5.23379C8.4734 5.14003 8.5327 5.04209 8.60065 4.94528L7.53225 3.88653L7.53178 3.88607C6.99211 3.34454 6.99211 2.46729 7.53178 1.92578L7.53179 1.92577C8.07228 1.38351 8.94919 1.38331 9.49001 1.92516L12.3034 8.63448ZM12.3034 8.63448C11.9536 8.98546 11.4894 9.15118 11.0308 9.13116L10.7599 9.11933L10.9516 9.31111L11.7087 10.0682L11.7517 10.1111L11.8103 10.0956C12.2646 9.97507 12.6944 9.73622 13.0504 9.37908L12.9757 9.30462L13.0504 9.37908C14.1238 8.30213 14.1238 6.55676 13.0504 5.47983L13.0502 5.47965L9.49015 1.9253L12.3034 8.63448ZM0.298994 0.29899C0.298992 0.298991 0.298991 0.298992 0.29899 0.298994L0.298994 0.29899ZM5.51743 6.26321L9.48925 10.235C9.40559 10.2631 9.31609 10.2783 9.22303 10.2783H7.95652C7.94419 9.2659 7.02706 8.58136 6.06106 8.58136H4.89063C4.59938 8.58136 4.36328 8.8175 4.36328 9.1087C4.36328 9.4 4.59939 9.63604 4.89063 9.63604H6.06106C6.58449 9.63604 6.88813 9.97728 6.9015 10.2783H3.72762C3.26479 10.2783 2.88672 9.90141 2.88672 9.43287V8.30975C2.88672 7.17784 3.80082 6.26321 4.92483 6.26321H5.51743ZM2.35938 5.41732C2.67726 5.41732 2.96523 5.54507 3.17488 5.7523C2.53828 6.19113 2.07382 6.86282 1.90338 7.64462C1.48924 7.46739 1.19922 7.05619 1.19922 6.57748C1.19922 5.93674 1.71864 5.41732 2.35938 5.41732Z" fill="white" stroke="white" stroke-width="0.210938"/>
</g>
<defs>
<clipPath id="clip0_58_10067">
<rect width="14" height="14" fill="white"/>
</clipPath>
</defs>
</svg>
