<svg width="14" height="14" viewBox="0 0 14 14" fill="none" xmlns="http://www.w3.org/2000/svg">
<path d="M2.27612 9.14237C2.27612 9.19128 2.23601 9.23529 2.18662 9.23529H0.473905C0.424021 9.23529 0.383916 9.19128 0.383916 9.14237V7.90503C0.383916 7.85613 0.424021 7.817 0.473905 7.817H2.18662C2.23601 7.817 2.27612 7.85613 2.27612 7.90503V9.14237ZM2.20178 7.44531H0.458256C0.205898 7.44531 0 7.65072 0 7.90503V9.14726C0 9.39669 0.205898 9.60699 0.458256 9.60699H2.20178C2.45463 9.60699 2.66003 9.39669 2.66003 9.14726V7.90503C2.66003 7.65072 2.45463 7.44531 2.20178 7.44531Z" fill="white"/>
<path d="M2.27612 6.72637C2.27612 6.77038 2.23601 6.8144 2.18662 6.8144H0.473905C0.424021 6.8144 0.383916 6.77038 0.383916 6.72637V5.48413C0.383916 5.43523 0.424021 5.3961 0.473905 5.3961H2.18662C2.23601 5.3961 2.27612 5.43523 2.27612 5.48413V6.72637ZM2.20178 5.02441H0.458256C0.205898 5.02441 0 5.22982 0 5.48413V6.72637C0 6.98068 0.205898 7.18609 0.458256 7.18609H2.20178C2.45463 7.18609 2.66003 6.98068 2.66003 6.72637V5.48413C2.66003 5.22982 2.45463 5.02441 2.20178 5.02441Z" fill="white"/>
<path d="M9.46436 8.69245C9.87908 8.85873 10.755 8.99078 11.4387 8.99078C12.187 8.99078 12.4966 8.73647 12.4966 8.41368C12.4966 8.12024 12.209 7.95396 11.383 7.65074C10.2782 7.24481 9.46778 6.92203 9.46778 6.19332C9.46778 5.44505 10.443 5 11.9293 5C12.7274 5 13.0013 5.0489 13.508 5.14183L13.5119 5.85587C13.014 5.76294 12.5729 5.60155 11.8877 5.60155C11.1531 5.60155 10.8401 5.8363 10.8401 6.07594C10.8401 6.42318 11.3223 6.58946 12.1679 6.89269C13.3451 7.31328 14 7.63607 14 8.34521C14 9.07882 13.1798 9.60701 11.3301 9.60701C10.5706 9.60701 10.0468 9.5581 9.46436 9.46029V8.69245Z" fill="white"/>
<path d="M5.52724 5.63088H4.64692V8.96632H5.52724C6.87853 8.96632 7.73098 8.38433 7.73098 7.30349C7.73098 6.22265 6.87853 5.63088 5.52724 5.63088ZM7.88992 9.27443C7.45465 9.47006 6.63107 9.59721 5.91116 9.59721H3.15967V5.00977H5.91116C6.63107 5.00977 7.45465 5.13692 7.8909 5.33255C8.95071 5.81183 9.29599 6.57967 9.29599 7.30349C9.29599 8.02731 8.95364 8.79514 7.88992 9.27443Z" fill="white"/>
</svg>
