<svg width="14" height="14" viewBox="0 0 14 14" fill="none" xmlns="http://www.w3.org/2000/svg">
<g clip-path="url(#clip0_433_25335)">
<path d="M6.99961 10.8666C8.54375 9.32247 10.6228 7.24346 11.9864 5.87988C12.7674 5.09883 12.7664 3.83345 11.9854 3.0524L10.5472 1.61416C9.76611 0.833116 8.50074 0.832159 7.71969 1.61321C6.3561 2.97679 4.27709 5.05581 2.73294 6.59995M6.99961 10.8666C6.78137 11.0849 6.53107 11.3352 6.28049 11.5857C5.49944 12.3668 4.23311 12.3668 3.45206 11.5857L2.01382 10.1475C1.23277 9.36645 1.23277 8.10012 2.01382 7.31907C2.2644 7.06849 2.5147 6.81819 2.73294 6.59995M6.99961 10.8666C5.33337 9.20038 4.39918 8.26619 2.73294 6.59995" stroke="white" stroke-width="2" stroke-linecap="round" stroke-linejoin="round"/>
<path d="M12.887 12.9966H5.67029C5.13986 12.9966 4.63115 12.7859 4.25608 12.4109L2.5752 10.73" stroke="white" stroke-width="2" stroke-linecap="round" stroke-linejoin="round"/>
</g>
<defs>
<clipPath id="clip0_433_25335">
<rect width="14" height="14" fill="white"/>
</clipPath>
</defs>
</svg>
