<svg width="14" height="14" viewBox="0 0 14 14" fill="none" xmlns="http://www.w3.org/2000/svg">
<g clip-path="url(#clip0_81_18356)">
<path d="M2.93413 6.2421L3.13711 5.78715L3.2281 6.2421H2.93413ZM5.72681 5.05923L5.18087 6.34009L4.9499 5.05923H4.47396L3.85803 6.94902L3.54306 5.05923H2.95513L2.05923 7.089L2.19222 6.2421H1.30332L1.23333 6.67605H1.60429L1.56229 6.90702C1.35231 6.99801 0.988357 6.97001 0.834375 6.69005C0.736386 6.51507 0.645397 6.12311 1.05835 5.76615C1.39431 5.47219 1.97524 5.42319 2.3112 5.57717C2.3112 5.57717 2.3532 5.3322 2.3882 5.10123C1.74427 4.87726 1.24033 5.06623 0.904367 5.26921C0.449419 5.54918 0.232444 5.98313 0.288438 6.57106C0.35843 7.24998 1.23333 7.67693 1.98224 7.24998C1.98924 7.24298 1.99624 7.24298 1.99624 7.24298L1.92625 7.40396H2.43019L2.74515 6.70405H3.29809L3.41708 7.40396H4.22898L4.64194 6.10211L4.9079 7.40396H5.22987L5.8528 5.96213L5.91579 7.40396H6.39173L6.30074 5.05923H5.72681Z" fill="white"/>
<path d="M6.44092 7.39706H7.77776L7.85475 6.89311H7.01485L7.08484 6.48016H7.81276L7.88975 5.97622H7.15484L7.21783 5.56327H8.05773L8.13472 5.05933H6.81187L6.44092 7.39706Z" fill="white"/>
<path d="M12.9641 5.82224L12.6701 5.05933H12.1172L12.6841 6.29118L12.5091 7.39706H12.9921L13.1391 6.41717L14 5.05933H13.44L12.9641 5.82224Z" fill="white"/>
<path d="M11.844 6.45205C11.7181 6.837 11.4031 7.06098 11.1511 6.94899C10.8992 6.837 10.8012 6.43105 10.9272 6.0391C11.0531 5.65414 11.3681 5.43017 11.6201 5.54215C11.879 5.66114 11.977 6.06709 11.844 6.45205ZM11.6621 5.08021C11.1301 4.96122 10.5772 5.38117 10.4302 6.0251C10.2832 6.66902 10.5912 7.29195 11.1231 7.41794C11.6551 7.54392 12.208 7.11697 12.355 6.47305C12.502 5.82912 12.187 5.20619 11.6621 5.08021Z" fill="white"/>
<path d="M9.53442 5.99707C9.26845 5.99707 9.19845 5.99707 9.19845 5.99707L9.27544 5.56312C9.27544 5.56312 9.28244 5.56312 9.58341 5.56312C9.92637 5.56312 9.86338 5.99707 9.53442 5.99707ZM9.47842 6.94196C9.21245 6.94196 9.05847 6.94196 9.05847 6.94196L9.13546 6.48002C9.13546 6.48002 9.23345 6.48002 9.53442 6.48002C9.91237 6.47302 9.90537 6.94196 9.47842 6.94196ZM9.75839 5.07318C9.49942 5.06618 8.86249 5.07318 8.86249 5.07318H8.86949L8.49854 7.38991C8.49854 7.38991 9.26145 7.38991 9.57641 7.38991C10.0174 7.38991 10.6683 6.73899 10.0804 6.20005C10.6823 5.57012 10.0804 5.08018 9.75839 5.07318Z" fill="white"/>
<path d="M3.10764 9.32292H2.67369V8.44103H3.28962C3.61858 8.44103 3.77956 8.57401 3.77956 8.86098C3.77956 9.21094 3.60458 9.32292 3.10764 9.32292ZM6.13829 8.07007H5.63435L5.62035 8.09807L5.05342 9.14094L4.44449 8.09807L4.43049 8.07707H3.89155L3.93355 8.14706L4.03853 8.31504C3.87055 8.15406 3.61858 8.07007 3.28962 8.07007H2.20475V9.42791L1.39984 8.09807L1.38584 8.07707H0.972887L0.958889 8.09807L0.0419956 9.63789L0 9.70788H0.356959H1.15487V9.34392H0.685921L1.15487 8.49702L1.81979 9.67988L1.83379 9.70088H2.36573H3.18463C3.89155 9.70088 4.25551 9.42091 4.25551 8.87498C4.25551 8.77699 4.24151 8.693 4.22051 8.61601L4.86444 9.67988L4.87844 9.70088H5.1934L5.2074 9.67988L6.0963 8.14006L6.13829 8.07007Z" fill="white"/>
<path d="M9.2672 8.07007H9.2182V9.04296L7.99334 8.08407L7.97935 8.07007H7.65738V9.42791L6.85248 8.09807L6.83848 8.07007H6.42552L6.41153 8.09807L5.49463 9.63089L5.45264 9.70788H5.94258H6.6145V9.34392H6.14556L6.6145 8.49702L7.27943 9.67988L7.29343 9.70788H7.82536H8.09133V8.72099L9.31619 9.69388L9.33019 9.70788H9.65215V8.07007H9.2672Z" fill="white"/>
<path d="M11.2057 8.07007H10.2468C9.91081 8.07007 9.79883 8.17506 9.79883 8.48302V9.29493C9.79883 9.60289 9.91081 9.70788 10.2468 9.70788H11.2057C11.5416 9.70788 11.6536 9.60289 11.6536 9.29493V9.06395H11.6046H11.2267H11.1777V9.31592H10.2608V8.45502H11.1777V8.679H11.2267H11.6536V8.48302C11.6536 8.16806 11.5416 8.07007 11.2057 8.07007Z" fill="white"/>
<path d="M13.5224 9.32292H12.2766V9.03596H13.0255V8.679H12.2766V8.44103H13.5504V8.07007H11.8076V9.70788H13.5714V9.32292H13.5224Z" fill="white"/>
</g>
<defs>
<clipPath id="clip0_81_18356">
<rect width="14" height="14" fill="white"/>
</clipPath>
</defs>
</svg>
