<svg width="14" height="14" viewBox="0 0 14 14" fill="none" xmlns="http://www.w3.org/2000/svg">
<rect x="2" y="9" width="10" height="3" rx="1.5" fill="#FFE600" fill-opacity="0.75"/>
<path d="M3.98 11.5V2.148H5.156V5.606C5.352 5.27933 5.62733 5.004 5.982 4.78C6.33667 4.556 6.808 4.444 7.396 4.444C8.236 4.444 8.82867 4.69133 9.174 5.186C9.51933 5.67133 9.692 6.31067 9.692 7.104V11.5H8.516V7.454C8.516 7.09933 8.48333 6.77267 8.418 6.474C8.35267 6.166 8.208 5.91867 7.984 5.732C7.76933 5.54533 7.438 5.452 6.99 5.452C6.42067 5.452 5.97267 5.648 5.646 6.04C5.31933 6.42267 5.156 6.98733 5.156 7.734V11.5H3.98Z" fill="white"/>
</svg>
