<svg width="14" height="14" viewBox="0 0 14 14" fill="none" xmlns="http://www.w3.org/2000/svg">
<path d="M3.25178 10.6345C2.46706 10.6345 1.84302 10.4439 1.37966 10.0628C0.916306 9.68165 0.606155 9.17345 0.449211 8.5382L2.0747 7.94406C2.11954 8.15331 2.1868 8.35884 2.27649 8.56062C2.37364 8.75493 2.50069 8.91561 2.65764 9.04266C2.82205 9.16971 3.0201 9.23324 3.25178 9.23324C3.62546 9.23324 3.90945 9.1174 4.10376 8.88572C4.30555 8.64657 4.40644 8.22805 4.40644 7.63017V3.01153H6.17766V7.63017C6.17766 8.56436 5.9273 9.3005 5.42658 9.83859C4.93332 10.3692 4.20839 10.6345 3.25178 10.6345ZM10.1861 10.6345C9.37151 10.6345 8.68395 10.4701 8.12344 10.1413C7.5704 9.80496 7.17804 9.33787 6.94636 8.73999L8.56064 8.15705C8.66527 8.51578 8.85958 8.78109 9.14357 8.95298C9.43504 9.12487 9.7863 9.21082 10.1973 9.21082C10.4141 9.21082 10.6233 9.1884 10.8251 9.14356C11.0269 9.09124 11.1951 9.00903 11.3296 8.89693C11.4641 8.77735 11.5314 8.62041 11.5314 8.4261C11.5314 8.16452 11.4043 7.96274 11.1502 7.82074C10.8961 7.67127 10.5673 7.55917 10.1637 7.48443L9.25568 7.30507C8.8521 7.22286 8.47469 7.09955 8.12344 6.93513C7.77965 6.76324 7.50313 6.53903 7.29388 6.26251C7.08462 5.97852 6.97999 5.62353 6.97999 5.19754C6.97999 4.79397 7.07341 4.44645 7.26024 4.15498C7.44708 3.86351 7.69371 3.62436 8.00012 3.43752C8.31401 3.25068 8.65779 3.11242 9.03147 3.02274C9.40515 2.92559 9.77882 2.87701 10.1525 2.87701C10.5561 2.87701 10.9447 2.93306 11.3184 3.04516C11.6995 3.15727 12.0396 3.33289 12.3385 3.57205C12.6374 3.80373 12.8654 4.11388 13.0223 4.5025L11.4193 5.08543C11.3221 4.83133 11.1465 4.63702 10.8924 4.5025C10.6458 4.36798 10.3468 4.30071 9.99555 4.30071C9.65177 4.30071 9.36404 4.36424 9.13236 4.49129C8.90816 4.61087 8.79605 4.78649 8.79605 5.01817C8.79605 5.20501 8.87453 5.36569 9.03147 5.50021C9.18841 5.63474 9.39394 5.72816 9.64803 5.78047L10.657 5.98226C10.9634 6.04204 11.2735 6.12052 11.5874 6.21767C11.9013 6.30735 12.189 6.43067 12.4506 6.58761C12.7197 6.73708 12.9364 6.93887 13.1008 7.19297C13.2652 7.44707 13.3474 7.76843 13.3474 8.15705C13.3474 8.55315 13.254 8.90814 13.0672 9.22203C12.8878 9.52844 12.6449 9.78628 12.3385 9.99554C12.0396 10.2048 11.7033 10.3655 11.3296 10.4776C10.9559 10.5822 10.5748 10.6345 10.1861 10.6345Z" fill="white"/>
</svg>
