<svg width="14" height="14" viewBox="0 0 14 14" fill="none" xmlns="http://www.w3.org/2000/svg">
<g clip-path="url(#clip0_2_167)">
<path d="M4.04837 6.44997L6.48707 1.5C6.97215 1.5 7.43737 1.67384 7.78038 1.98327C8.12339 2.2927 8.31609 2.71239 8.31609 3.14999V5.34998H11.7668C11.9436 5.34817 12.1187 5.38105 12.2799 5.44634C12.4412 5.51164 12.5848 5.60778 12.7008 5.72811C12.8168 5.84843 12.9024 5.99007 12.9516 6.14321C13.0009 6.29634 13.0127 6.45731 12.9862 6.61497L12.1448 11.5649C12.1007 11.8272 11.9531 12.0663 11.729 12.2381C11.5049 12.41 11.2196 12.5029 10.9255 12.4999H4.04837M4.04837 6.44997V12.4999M4.04837 6.44997H2.21935C1.89596 6.44997 1.58581 6.56586 1.35714 6.77215C1.12847 6.97844 1 7.25823 1 7.54996V11.3999C1 11.6917 1.12847 11.9715 1.35714 12.1777C1.58581 12.384 1.89596 12.4999 2.21935 12.4999H4.04837" stroke="white" stroke-width="2" stroke-linecap="round" stroke-linejoin="round"/>
</g>
<defs>
<clipPath id="clip0_2_167">
<rect width="14" height="14" fill="white"/>
</clipPath>
</defs>
</svg>
