<svg width="14" height="14" viewBox="0 0 14 14" fill="none" xmlns="http://www.w3.org/2000/svg">
<g clip-path="url(#clip0_801_1324)">
<path d="M1.04678 12.8713C1.39928 12.8958 1.87197 12.9174 2.43473 12.9355C3.68768 12.9759 5.34161 12.9976 7 12.9998C8.65842 12.9976 10.3124 12.9759 11.5653 12.9356C12.1281 12.9175 12.6007 12.8959 12.9532 12.8715C12.9582 12.7678 12.9628 12.6447 12.967 12.4985C12.9929 11.5907 12.9975 9.96459 12.9975 6.9893C12.9975 6.49827 12.9981 6.04016 12.9986 5.6128C13.0003 4.27103 13.0016 3.23248 12.9837 2.43065C12.9736 1.97516 12.9575 1.6135 12.9338 1.32805C12.8481 1.3854 12.764 1.44261 12.6732 1.50444C12.5486 1.58922 12.4112 1.68269 12.2394 1.79715L12.211 1.81609C11.6084 2.21753 11.1796 2.50324 10.868 2.64237C10.6822 2.72536 10.4279 2.8101 10.1249 2.78581C9.84395 2.76329 9.62964 2.65131 9.54591 2.60757C9.54341 2.60626 9.54102 2.60501 9.53875 2.60383L1.04678 12.8713ZM1.04678 12.8713C1.04185 12.7676 1.03721 12.6444 1.03304 12.4982C1.00714 11.5905 1.00249 9.96435 1.00249 6.98906C1.00249 6.49803 1.00192 6.0399 1.00139 5.61254C0.999727 4.27078 0.998439 3.23223 1.01629 2.43041C1.02643 1.97491 1.04248 1.61325 1.06624 1.3278C1.15192 1.38516 1.23599 1.44237 1.32685 1.5042C1.45143 1.58898 1.58878 1.68245 1.76058 1.7969C1.76058 1.7969 1.76058 1.7969 1.76058 1.7969L1.04678 12.8713ZM1.08946 13.3533C1.08938 13.3534 1.08851 13.3503 1.08709 13.3433C1.08884 13.3496 1.08955 13.3531 1.08946 13.3533ZM4.46126 2.60358C4.62361 2.519 4.94792 2.41818 5.43233 2.34243C5.89724 2.26973 6.44246 2.23019 7 2.22947C7.55747 2.23019 8.10266 2.26979 8.56755 2.34254C9.05194 2.41834 9.37632 2.51921 9.53874 2.60382L4.46126 2.60358ZM0.484718 0.982453C0.484548 0.982116 0.489101 0.983329 0.498884 0.987104C0.489778 0.984677 0.484887 0.98279 0.484718 0.982453ZM12.9129 13.3435C12.9115 13.3505 12.9106 13.3537 12.9105 13.3535C12.9105 13.3533 12.9112 13.3498 12.9129 13.3435ZM13.0649 13.0832L13.0648 13.0833L13.0649 13.0832ZM13.5011 0.987347C13.5109 0.983572 13.5155 0.982359 13.5153 0.982697C13.5151 0.983034 13.5102 0.984921 13.5011 0.987347Z" stroke="white" stroke-width="2"/>
</g>
<defs>
<clipPath id="clip0_801_1324">
<rect width="14" height="14" fill="white"/>
</clipPath>
</defs>
</svg>
