<svg width="14" height="14" viewBox="0 0 14 14" fill="none" xmlns="http://www.w3.org/2000/svg">
<path d="M6.77695 13.74C5.61695 13.74 4.58362 13.4867 3.67695 12.98C2.78362 12.46 2.12362 11.7067 1.69695 10.72L4.33695 9.76C4.52362 10.4133 4.82362 10.8667 5.23695 11.12C5.66362 11.36 6.12362 11.48 6.61695 11.48C7.32362 11.48 7.90362 11.2733 8.35695 10.86C8.81029 10.4467 9.03695 9.85333 9.03695 9.08C9.03695 8.25333 8.79695 7.64667 8.31695 7.26C7.85029 6.87333 7.30362 6.68 6.67695 6.68C5.69029 6.68 4.95695 7.11333 4.47695 7.98L1.77695 6.98L2.61695 0.139999H11.557V2.62H5.13695L4.83695 5.12C5.14362 4.89333 5.54362 4.72 6.03695 4.6C6.54362 4.48 7.03029 4.42 7.49695 4.42C8.29695 4.42 9.05029 4.59333 9.75695 4.94C10.477 5.28667 11.057 5.80667 11.497 6.5C11.9503 7.18 12.177 8.04 12.177 9.08C12.177 10.0933 11.9236 10.9467 11.417 11.64C10.9236 12.3333 10.2636 12.86 9.43695 13.22C8.62362 13.5667 7.73695 13.74 6.77695 13.74Z" fill="white"/>
</svg>
