<svg width="14" height="14" viewBox="0 0 14 14" fill="none" xmlns="http://www.w3.org/2000/svg">
<g clip-path="url(#clip0_215_20510)">
<path d="M1 1H13H1ZM15 7C15 9.76142 12.7614 12 10 12H4C1.23858 12 -1 9.76142 -1 7H3C3 7.55228 3.44772 8 4 8H10C10.5523 8 11 7.55228 11 7H15ZM4 12C1.23858 12 -1 9.76142 -1 7V1H3V7C3 7.55228 3.44772 8 4 8V12ZM15 1V7C15 9.76142 12.7614 12 10 12V8C10.5523 8 11 7.55228 11 7V1H15Z" fill="white" mask="url(#path-1-inside-1_215_20510)"/>
<rect width="14" height="2" rx="1" fill="white"/>
<rect x="6" y="10" width="2" height="2" fill="white"/>
<rect x="2.5" y="12" width="9" height="2" rx="1" fill="white"/>
</g>
<defs>
<clipPath id="clip0_215_20510">
<rect width="14" height="14" fill="white"/>
</clipPath>
</defs>
</svg>
