<svg width="14" height="14" viewBox="0 0 14 14" fill="none" xmlns="http://www.w3.org/2000/svg">
<g clip-path="url(#clip0_455_1096)">
<path d="M1 9.5V11.0001C1 12.1046 1.89543 13.0001 3 13.0001H4.5M8 13.0001H9C10.1046 13.0001 11 12.1046 11 11.0001V9.5M11 6.00007V5.00002C11 3.89547 10.1046 3.00005 9.00005 3.00002L8 3M4.5 3.00007H3C1.89543 3.00007 1 3.8955 1 5.00007V6.00007" stroke="white" stroke-width="2" stroke-linecap="round"/>
<path d="M11 9.5H11.25C12.2165 9.5 13 8.7165 13 7.75V7.75C13 6.7835 12.2165 6 11.25 6H11" stroke="white" stroke-width="2" stroke-linecap="round"/>
<path d="M4.5 13V12.75C4.5 11.7835 5.2835 11 6.25 11V11C7.2165 11 8 11.7835 8 12.75V13" stroke="white" stroke-width="2" stroke-linecap="round"/>
<path d="M1 9.5H1.25C2.2165 9.5 3 8.7165 3 7.75V7.75C3 6.7835 2.2165 6 1.25 6H1" stroke="white" stroke-width="2" stroke-linecap="round"/>
<path d="M8 3V2.75C8 1.7835 7.2165 1 6.25 1V1C5.2835 1 4.5 1.7835 4.5 2.75V3" stroke="white" stroke-width="2"/>
</g>
<defs>
<clipPath id="clip0_455_1096">
<rect width="14" height="14" fill="white"/>
</clipPath>
</defs>
</svg>
