<svg width="14" height="14" viewBox="0 0 14 14" fill="none" xmlns="http://www.w3.org/2000/svg">
<g clip-path="url(#clip0_2_68)">
<path d="M4 1H3C1.89543 1 1 1.89543 1 3V11C1 12.1046 1.89543 13 3 13H4M4 1H9.17157C9.70201 1 10.2107 1.21071 10.5858 1.58579L12.4142 3.41421C12.7893 3.78929 13 4.29799 13 4.82843V11C13 12.1046 12.1046 13 11 13H10M4 1V3V3C4 3.55228 4.44772 4 5 4V4H8M4 13H7H10M4 13V10C4 8.89543 4.89543 8 6 8H8C9.10457 8 10 8.89543 10 10V13" stroke="white" stroke-width="2" stroke-linecap="round"/>
</g>
<defs>
<clipPath id="clip0_2_68">
<rect width="14" height="14" fill="white"/>
</clipPath>
</defs>
</svg>
