<svg width="14" height="14" viewBox="0 0 14 14" fill="none" xmlns="http://www.w3.org/2000/svg">
<g clip-path="url(#clip0_2_160)">
<path d="M3.5 5C4.60457 5 5.5 4.10457 5.5 3C5.5 1.89543 4.60457 1 3.5 1C2.39543 1 1.5 1.89543 1.5 3C1.5 4.10457 2.39543 5 3.5 5Z" stroke="white" stroke-width="2" stroke-linecap="round" stroke-linejoin="round"/>
<path d="M3.5 13C4.60457 13 5.5 12.1046 5.5 11C5.5 9.89543 4.60457 9 3.5 9C2.39543 9 1.5 9.89543 1.5 11C1.5 12.1046 2.39543 13 3.5 13Z" stroke="white" stroke-width="2" stroke-linecap="round" stroke-linejoin="round"/>
<path d="M12.5 2L5.5 9" stroke="white" stroke-width="2" stroke-linecap="round" stroke-linejoin="round"/>
<path d="M9.5 9L12.5 12" stroke="white" stroke-width="2" stroke-linecap="round" stroke-linejoin="round"/>
<path d="M5.5 5L7.5 7" stroke="white" stroke-width="2" stroke-linecap="round" stroke-linejoin="round"/>
</g>
<defs>
<clipPath id="clip0_2_160">
<rect width="14" height="14" fill="white"/>
</clipPath>
</defs>
</svg>
