<svg width="14" height="14" viewBox="0 0 14 14" fill="none" xmlns="http://www.w3.org/2000/svg">
<g clip-path="url(#clip0_36_3155)">
<path d="M10.5998 4.59999C11.5939 4.59999 12.3998 3.79411 12.3998 2.8C12.3998 1.80589 11.5939 1 10.5998 1C9.60569 1 8.7998 1.80589 8.7998 2.8C8.7998 3.79411 9.60569 4.59999 10.5998 4.59999Z" stroke="white" stroke-width="2" stroke-linecap="round" stroke-linejoin="round"/>
<path d="M3.40009 8.79994C4.39421 8.79994 5.20009 7.99406 5.20009 6.99995C5.20009 6.00584 4.39421 5.19995 3.40009 5.19995C2.40598 5.19995 1.6001 6.00584 1.6001 6.99995C1.6001 7.99406 2.40598 8.79994 3.40009 8.79994Z" stroke="white" stroke-width="2" stroke-linecap="round" stroke-linejoin="round"/>
<path d="M10.5998 12.9999C11.5939 12.9999 12.3998 12.194 12.3998 11.1999C12.3998 10.2058 11.5939 9.3999 10.5998 9.3999C9.60569 9.3999 8.7998 10.2058 8.7998 11.1999C8.7998 12.194 9.60569 12.9999 10.5998 12.9999Z" stroke="white" stroke-width="2" stroke-linecap="round" stroke-linejoin="round"/>
<path d="M4.9541 7.90601L9.05209 10.294" stroke="white" stroke-width="2" stroke-linecap="round" stroke-linejoin="round"/>
<path d="M9.04609 3.70605L4.9541 6.09405" stroke="white" stroke-width="2" stroke-linecap="round" stroke-linejoin="round"/>
</g>
<defs>
<clipPath id="clip0_36_3155">
<rect width="14" height="14" fill="white"/>
</clipPath>
</defs>
</svg>
