<svg width="14" height="14" viewBox="0 0 14 14" fill="none" xmlns="http://www.w3.org/2000/svg">
<g clip-path="url(#clip0_2_114)">
<path d="M6.52447 1.96352C6.67415 1.50287 7.32585 1.50287 7.47553 1.96353L8.45934 4.99139C8.52628 5.1974 8.71826 5.33688 8.93487 5.33688H12.1186C12.6029 5.33688 12.8043 5.95669 12.4124 6.24139L9.83679 8.11271C9.66155 8.24003 9.58822 8.46572 9.65516 8.67173L10.639 11.6996C10.7886 12.1602 10.2614 12.5433 9.86955 12.2586L7.29389 10.3873C7.11865 10.26 6.88135 10.26 6.70611 10.3873L4.13045 12.2586C3.73859 12.5433 3.21136 12.1602 3.36103 11.6996L4.34484 8.67173C4.41178 8.46572 4.33845 8.24003 4.16321 8.11271L1.58755 6.24139C1.1957 5.95669 1.39708 5.33688 1.88145 5.33688H5.06513C5.28174 5.33688 5.47372 5.1974 5.54066 4.99139L6.52447 1.96352Z" stroke="white" stroke-width="2"/>
</g>
<defs>
<clipPath id="clip0_2_114">
<rect width="14" height="14" fill="white"/>
</clipPath>
</defs>
</svg>
