<svg width="14" height="14" viewBox="0 0 14 14" fill="none" xmlns="http://www.w3.org/2000/svg">
<path d="M6.644 11.668C6.13067 11.668 5.63133 11.5887 5.146 11.43C4.66067 11.2713 4.23133 11.0287 3.858 10.702C3.494 10.3753 3.228 9.96 3.06 9.456L4.278 9.092C4.39 9.428 4.572 9.708 4.824 9.932C5.076 10.1467 5.36533 10.3053 5.692 10.408C6.028 10.5107 6.364 10.562 6.7 10.562C7.07333 10.562 7.428 10.5013 7.764 10.38C8.1 10.2587 8.37067 10.0767 8.576 9.834C8.79067 9.582 8.898 9.26933 8.898 8.896C8.898 8.51333 8.758 8.21 8.478 7.986C8.198 7.762 7.71267 7.56133 7.022 7.384L5.832 7.118C5.40267 7.006 4.978 6.85667 4.558 6.67C4.14733 6.48333 3.80667 6.21733 3.536 5.872C3.27467 5.52667 3.144 5.06467 3.144 4.486C3.144 3.954 3.30733 3.50133 3.634 3.128C3.97 2.75467 4.39933 2.47 4.922 2.274C5.454 2.078 6.00467 1.98 6.574 1.98C7.01267 1.98 7.442 2.04533 7.862 2.176C8.29133 2.29733 8.674 2.48867 9.01 2.75C9.35533 3.002 9.626 3.32867 9.822 3.73L8.618 4.08C8.44067 3.75333 8.15133 3.506 7.75 3.338C7.358 3.17 6.94733 3.086 6.518 3.086C6.182 3.086 5.86 3.142 5.552 3.254C5.244 3.35667 4.992 3.51533 4.796 3.73C4.6 3.94467 4.502 4.21533 4.502 4.542C4.502 4.85 4.59067 5.09733 4.768 5.284C4.95467 5.47067 5.19733 5.62 5.496 5.732C5.804 5.83467 6.14 5.928 6.504 6.012L7.526 6.236C8.002 6.348 8.45 6.502 8.87 6.698C9.29 6.894 9.63067 7.16933 9.892 7.524C10.1533 7.87867 10.284 8.35467 10.284 8.952C10.284 9.38133 10.1813 9.76867 9.976 10.114C9.77067 10.45 9.49533 10.7347 9.15 10.968C8.80467 11.192 8.41267 11.3647 7.974 11.486C7.54467 11.6073 7.10133 11.668 6.644 11.668Z" fill="white"/>
<rect x="2.5" y="6.5" width="9" height="1" rx="0.5" fill="white"/>
</svg>
