<svg width="14" height="14" viewBox="0 0 14 14" fill="none" xmlns="http://www.w3.org/2000/svg">
<path d="M2.14109 8.40735C1.78951 8.40735 1.46784 8.34003 1.1761 8.20538C0.884363 8.07073 0.652467 7.88372 0.480415 7.64434C0.308363 7.39748 0.222337 7.10574 0.222337 6.76912C0.222337 6.31281 0.379428 5.95 0.69361 5.6807C1.01527 5.41141 1.45288 5.20943 2.00644 5.07478C2.56 4.94013 3.19584 4.84663 3.91397 4.79426C3.91397 4.3978 3.85039 4.11728 3.72322 3.9527C3.59605 3.78813 3.34919 3.70585 2.98265 3.70585C2.75075 3.70585 2.54504 3.76195 2.36551 3.87416C2.19345 3.97889 2.07751 4.14346 2.01766 4.36787L0.581402 3.85172C0.768415 3.47769 1.07886 3.16725 1.51273 2.92039C1.95408 2.67354 2.49268 2.55011 3.12852 2.55011C3.92145 2.55011 4.53112 2.7259 4.95751 3.07748C5.3839 3.42907 5.59709 4.02751 5.59709 4.87281V6.09587C5.59709 6.33525 5.60457 6.59333 5.61953 6.87011C5.63449 7.14689 5.65694 7.4087 5.68686 7.65556C5.71678 7.90242 5.75044 8.10813 5.78784 8.27271H4.20571L4.00374 7.59946C3.79429 7.8912 3.52873 8.10065 3.20706 8.22782C2.89288 8.34751 2.53756 8.40735 2.14109 8.40735ZM2.76945 7.24039C3.10608 7.24039 3.3866 7.15063 3.61101 6.97109C3.83543 6.79156 3.94764 6.44746 3.94764 5.93878V5.80413C3.35667 5.8565 2.88166 5.93878 2.5226 6.05099C2.16353 6.15572 1.984 6.35395 1.984 6.64569C1.984 6.82522 2.0588 6.97109 2.20842 7.0833C2.35803 7.18803 2.54504 7.24039 2.76945 7.24039Z" fill="white"/>
<path d="M10.4394 5.58277C10.3833 5.76711 10.3512 5.91138 10.3192 6.04763C10.1509 6.83308 10.0226 7.9231 10.0226 8.86084C10.0226 10.2554 10.2551 11.121 10.5356 11.9546L9.42152 12.2832C9.17306 11.5618 8.93261 10.3436 8.93261 9.07724C8.93261 8.05935 9.06886 6.94529 9.16504 6.0877C9.18107 5.92741 9.1971 5.71101 9.18908 5.55071L10.4394 5.58277ZM8.93261 6.4083C10.5195 6.4083 11.6176 6.35219 12.916 6.0316L12.924 7.14566C11.85 7.34603 10.1108 7.45824 8.89254 7.45824C8.42767 7.45824 7.80252 7.41817 7.40178 7.40214L7.36972 6.29609C7.65825 6.33616 8.36356 6.4083 8.93261 6.4083ZM12.4591 7.71472C12.387 7.88303 12.2347 8.33186 12.1786 8.52422C11.7298 9.95086 10.8882 11.0168 10.1749 11.5218C9.64593 11.9065 8.91658 12.2832 8.15517 12.2832C7.53803 12.2832 7.00103 11.9145 7.00103 11.0248C7.00103 9.87872 8.0109 8.66848 9.33335 8.20362C9.85432 8.01928 10.5195 7.89104 11.1688 7.89104C12.6515 7.89104 13.8457 8.75665 13.8457 10.0791C13.8457 11.2092 13.2286 12.3633 11.2008 12.6679L10.5596 11.65C12.1626 11.4737 12.6435 10.6722 12.6435 10.023C12.6435 9.38982 12.1065 8.87687 11.0806 8.87687C10.3192 8.87687 9.75012 9.08525 9.37343 9.26158C8.62805 9.63026 8.13914 10.3276 8.13914 10.7604C8.13914 10.9848 8.21929 11.105 8.45973 11.105C8.82842 11.105 9.37343 10.8165 9.8463 10.3596C10.3593 9.87071 10.8401 9.24555 11.1367 8.2437C11.2008 8.05134 11.2649 7.63457 11.281 7.4342L12.4591 7.71472Z" fill="white"/>
</svg>
