<svg width="14" height="14" viewBox="0 0 14 14" fill="none" xmlns="http://www.w3.org/2000/svg">
<path d="M6.83 10.668C5.47667 10.668 4.51067 10.332 3.932 9.66C3.35333 8.97867 3.064 7.95667 3.064 6.594V1.148H4.38V6.692C4.38 7.616 4.562 8.32067 4.926 8.806C5.29933 9.29133 5.934 9.534 6.83 9.534C7.726 9.534 8.356 9.29133 8.72 8.806C9.09333 8.32067 9.28 7.616 9.28 6.692V1.148H10.596V6.594C10.596 7.95667 10.3067 8.97867 9.728 9.66C9.15867 10.332 8.19267 10.668 6.83 10.668Z" fill="white"/>
<path d="M2 11.984H11.66V12.782H2V11.984Z" fill="white"/>
</svg>
