<svg width="14" height="14" viewBox="0 0 14 14" fill="none" xmlns="http://www.w3.org/2000/svg">
<path d="M5.81592 9.76431L5.78581 9.80752C5.38589 10.3816 4.67189 10.6475 3.99386 10.4749L3.37202 10.3166C2.64722 10.1321 2.0215 9.65108 1.72953 8.96251C1.00734 7.25934 1.0767 6.30634 1.50973 4.98283C2.25134 3.42298 4.96137 3.23463 6.2756 3.2384C6.75827 3.23978 7.24173 3.23978 7.7244 3.23839C9.03863 3.2346 11.7487 3.42292 12.4903 4.98277C12.9233 6.30627 12.9927 7.25927 12.2705 8.96244C11.9785 9.65102 11.3528 10.1321 10.628 10.3166L10.0061 10.4749C9.32809 10.6475 8.61411 10.3816 8.21418 9.8075L8.18408 9.76429C8.06285 9.59028 7.90475 9.44512 7.72104 9.33915C7.27481 9.08176 6.7252 9.08175 6.27896 9.33915C6.09525 9.44512 5.93715 9.59028 5.81592 9.76431Z" stroke="white" stroke-width="2"/>
</svg>
