<svg width="14" height="14" viewBox="0 0 14 14" fill="none" xmlns="http://www.w3.org/2000/svg">
<g clip-path="url(#clip0_338_4859)">
<path d="M6.83635 5.03108L6.83635 8.96894M6.83635 5.03108L4.64418 4.48576C3.58482 4.22223 2.47392 4.65099 1.8663 5.5579V5.5579C1.28171 6.43044 1.28171 7.56958 1.8663 8.44212V8.44212C2.47392 9.34903 3.58481 9.77779 4.64417 9.51426L6.83635 8.96894M6.83635 5.03108L10.2637 7.00001M6.83635 5.03108L7.45204 2.89102C7.75622 1.83372 8.69796 1.08094 9.79589 1.01048V1.01048C10.8362 0.943722 11.8208 1.50733 12.2847 2.44084V2.44084C12.7733 3.424 12.5882 4.60843 11.823 5.3957L10.2637 7.00001M6.83635 8.96894L10.2637 7.00001M6.83635 8.96894L7.4515 11.1085C7.75552 12.166 8.69713 12.9189 9.79512 12.9893V12.9893C10.8354 13.0561 11.8201 12.4924 12.284 11.5589V11.5589C12.7725 10.5757 12.5875 9.39137 11.8224 8.60405L10.2637 7.00001" stroke="white" stroke-width="2"/>
</g>
<defs>
<clipPath id="clip0_338_4859">
<rect width="14" height="14" fill="white"/>
</clipPath>
</defs>
</svg>
