<svg width="14" height="14" viewBox="0 0 14 14" fill="none" xmlns="http://www.w3.org/2000/svg">
<rect x="2.5" y="6" width="9" height="7" rx="2" stroke="white" stroke-width="2"/>
<path d="M8.75 6C8.75 6.55228 9.19772 7 9.75 7C10.3023 7 10.75 6.55228 10.75 6L8.75 6ZM6.25042 2L7.75 2L7.75 -8.04809e-08L6.25042 -1.40825e-07L6.25042 2ZM5.25042 6L5.25042 3L3.25042 3L3.25042 6L5.25042 6ZM8.75 3L8.75 6L10.75 6L10.75 3L8.75 3ZM6.25042 -1.40825e-07C4.59356 -2.07497e-07 3.25042 1.34315 3.25042 3L5.25042 3C5.25042 2.44771 5.69814 2 6.25042 2L6.25042 -1.40825e-07ZM7.75 2C8.30228 2 8.75 2.44772 8.75 3L10.75 3C10.75 1.34315 9.40685 -1.38085e-08 7.75 -8.04809e-08L7.75 2Z" fill="white"/>
</svg>
