<svg width="14" height="14" viewBox="0 0 14 14" fill="none" xmlns="http://www.w3.org/2000/svg">
<rect x="2.5" y="6" width="9" height="7" rx="2" stroke="white" stroke-width="2"/>
<path d="M9.75001 3L10.75 2.99999L9.75001 3ZM8.75001 3.1C8.75001 3.65229 9.19772 4.1 9.75001 4.1C10.3023 4.1 10.75 3.65228 10.75 3.1L8.75001 3.1ZM6.25042 2L7.75 2L7.75 -8.04807e-08L6.25042 -1.40825e-07L6.25042 2ZM5.25042 6L5.25042 3L3.25042 3L3.25042 6L5.25042 6ZM8.75001 3L8.75001 3.1L10.75 3.1L10.75 2.99999L8.75001 3ZM6.25042 -1.40825e-07C4.59356 -2.07497e-07 3.25042 1.34315 3.25042 3L5.25042 3C5.25042 2.44771 5.69814 2 6.25042 2L6.25042 -1.40825e-07ZM7.75 2C8.30229 2 8.75 2.44772 8.75001 3L10.75 2.99999C10.75 1.34314 9.40685 -1.38083e-08 7.75 -8.04807e-08L7.75 2Z" fill="white"/>
</svg>
