<svg width="14" height="14" viewBox="0 0 14 14" fill="none" xmlns="http://www.w3.org/2000/svg">
<path d="M6.7627 8.43787C7.14235 8.64529 7.56218 8.76864 7.9937 8.79954C8.42522 8.83045 8.85834 8.76819 9.26368 8.61698C9.66902 8.46578 10.0371 8.22917 10.343 7.9232L12.1532 6.11298C12.7028 5.54397 13.0069 4.78186 13 3.99081C12.9931 3.19975 12.6758 2.44305 12.1164 1.88367C11.557 1.32429 10.8003 1.00699 10.0093 1.00011C9.21823 0.99324 8.45613 1.29734 7.88711 1.84691L6.84925 2.87874" stroke="white" stroke-width="2" stroke-linecap="round" stroke-linejoin="round"/>
<path d="M7.2374 5.55005C6.85774 5.34262 6.43791 5.21928 6.00639 5.18837C5.57487 5.15747 5.14175 5.21973 4.73641 5.37093C4.33107 5.52214 3.96298 5.75875 3.65713 6.06472L1.84691 7.87493C1.29734 8.44395 0.99324 9.20605 1.00011 9.99711C1.00699 10.7882 1.32429 11.5449 1.88367 12.1042C2.44305 12.6636 3.19975 12.9809 3.99081 12.9878C4.78186 12.9947 5.54396 12.6906 6.11298 12.141L7.1448 11.1092" stroke="white" stroke-width="2" stroke-linecap="round" stroke-linejoin="round"/>
</svg>
