<svg width="14" height="14" viewBox="0 0 14 14" fill="none" xmlns="http://www.w3.org/2000/svg">
<path d="M4.73865 2.7807C5.06798 2.7191 5.42702 2.74503 5.75233 2.9059L5.79527 2.92729C6.04088 3.05056 6.30005 3.11951 6.55652 3.11951H7.44349C7.7 3.11951 7.95913 3.05056 8.20475 2.92729L8.24767 2.90591C8.57297 2.74504 8.93203 2.71911 9.26138 2.78071L9.93217 2.90617C10.4691 3.00659 10.9316 3.34557 11.1816 3.82575C12.0144 5.42561 12.6401 6.73147 12.8851 7.84404C13.1365 8.98527 12.9944 9.95808 12.2696 10.8452C11.7785 11.4461 10.919 11.3257 10.4698 10.8261C10.119 10.436 9.72158 9.98653 9.3349 9.54616C9.04809 9.21953 8.63231 9.03145 8.19515 9.03145H5.80481C5.36771 9.03145 4.95189 9.21953 4.66511 9.54616C4.27845 9.98653 3.88093 10.436 3.53019 10.8261C3.08098 11.3257 2.22151 11.4461 1.73043 10.8452C1.00558 9.95808 0.863524 8.98527 1.11491 7.84396C1.35998 6.73146 1.98563 5.4256 2.81843 3.82573C3.06838 3.34556 3.53092 3.00659 4.06786 2.90616L4.73865 2.7807Z" stroke="white" stroke-width="2"/>
</svg>
