<svg width="14" height="14" viewBox="0 0 14 14" fill="none" xmlns="http://www.w3.org/2000/svg">
<g clip-path="url(#clip0_81_18693)">
<g clip-path="url(#clip1_81_18693)">
<path d="M3.17353 12.8344C2.52393 12.8344 1.94526 12.6925 1.43753 12.4088C0.937265 12.1176 0.567665 11.6957 0.328731 11.1432L1.80713 10.6056C1.91166 10.9714 2.07966 11.2253 2.31113 11.3672C2.55006 11.5016 2.80766 11.5688 3.08393 11.5688C3.47966 11.5688 3.80446 11.453 4.05833 11.2216C4.3122 10.9901 4.43913 10.6578 4.43913 10.2248C4.43913 9.76182 4.30473 9.42208 4.03593 9.20555C3.7746 8.98902 3.46846 8.88075 3.11753 8.88075C2.565 8.88075 2.15433 9.12342 1.88553 9.60875L0.373531 9.04875L0.843931 5.21835H5.85033V6.60715H2.25513L2.08713 8.00715C2.25886 7.88022 2.48286 7.78315 2.75913 7.71595C3.04286 7.64875 3.3154 7.61515 3.57673 7.61515C4.02473 7.61515 4.4466 7.71222 4.84233 7.90635C5.24553 8.10048 5.57033 8.39168 5.81673 8.77995C6.0706 9.16075 6.19753 9.64235 6.19753 10.2248C6.19753 10.7922 6.05566 11.2701 5.77193 11.6584C5.49566 12.0466 5.12606 12.3416 4.66313 12.5432C4.20766 12.7373 3.71113 12.8344 3.17353 12.8344ZM8.09374 12.8344C7.79508 12.8344 7.53748 12.7261 7.32094 12.5096C7.10441 12.293 6.99614 12.0354 6.99614 11.7368C6.99614 11.4306 7.10441 11.173 7.32094 10.964C7.53748 10.7549 7.79508 10.6504 8.09374 10.6504C8.39241 10.6504 8.64628 10.7549 8.85534 10.964C9.07188 11.173 9.18014 11.4306 9.18014 11.7368C9.18014 12.0354 9.07188 12.293 8.85534 12.5096C8.64628 12.7261 8.39241 12.8344 8.09374 12.8344Z" fill="white"/>
<path d="M11.1387 12.98V4.95182H8.41486V2.74766C9.04803 2.74766 9.57368 2.71779 9.99182 2.65806C10.41 2.58638 10.7564 2.43107 11.0312 2.19214C11.3179 1.94126 11.5688 1.54702 11.7838 1.00942H13.8446V12.98H11.1387Z" fill="white"/>
<path d="M0.185856 3.69995V1.82955H0.748656L1.47106 3.16235V1.82955H1.89946V3.69995H1.33386L0.611456 2.36715V3.69995H0.185856ZM2.9528 3.73355C2.65974 3.73355 2.4516 3.66355 2.3284 3.52355C2.20707 3.38355 2.1464 3.16982 2.1464 2.88235V1.82955H2.5888V2.91875C2.5888 3.01022 2.5972 3.09048 2.614 3.15955C2.63267 3.22675 2.66814 3.27902 2.7204 3.31635C2.77267 3.35368 2.85014 3.37235 2.9528 3.37235C3.05547 3.37235 3.132 3.35368 3.1824 3.31635C3.23467 3.27902 3.2692 3.22675 3.286 3.15955C3.30467 3.09048 3.314 3.01022 3.314 2.91875V1.82955H3.7564V2.88235C3.7564 3.16982 3.6948 3.38355 3.5716 3.52355C3.4484 3.66355 3.24214 3.73355 2.9528 3.73355ZM4.00304 3.69995V1.82955H4.61904C4.77211 1.82955 4.91398 1.84542 5.04464 1.87715C5.17718 1.90702 5.29198 1.95835 5.38904 2.03115C5.48798 2.10208 5.56451 2.19822 5.61864 2.31955C5.67464 2.43902 5.70264 2.58742 5.70264 2.76475C5.70264 2.94395 5.67464 3.09328 5.61864 3.21275C5.56451 3.33222 5.48798 3.42835 5.38904 3.50115C5.29198 3.57208 5.17718 3.62342 5.04464 3.65515C4.91398 3.68502 4.77211 3.69995 4.61904 3.69995H4.00304ZM4.44544 3.32755H4.62744C4.70771 3.32755 4.78424 3.32102 4.85704 3.30795C4.93171 3.29488 4.99798 3.26968 5.05584 3.23235C5.11558 3.19315 5.16224 3.13622 5.19584 3.06155C5.22944 2.98688 5.24624 2.88795 5.24624 2.76475C5.24624 2.64155 5.22944 2.54262 5.19584 2.46795C5.16224 2.39142 5.11558 2.33448 5.05584 2.29715C4.99798 2.25795 4.93171 2.23182 4.85704 2.21875C4.78424 2.20382 4.70771 2.19635 4.62744 2.19635H4.44544V3.32755ZM5.92258 3.69995V1.82955H6.36498V3.31075H7.26098V3.69995H5.92258Z" fill="white"/>
</g>
</g>
<defs>
<clipPath id="clip0_81_18693">
<rect width="14" height="14" fill="white"/>
</clipPath>
<clipPath id="clip1_81_18693">
<rect width="14" height="12.6" fill="white" transform="translate(0 0.699951)"/>
</clipPath>
</defs>
</svg>
