<svg width="14" height="14" viewBox="0 0 14 14" fill="none" xmlns="http://www.w3.org/2000/svg">
<g clip-path="url(#clip0_2_317)">
<path d="M4.66142 9.33869L2.48679 7.16406C2.15011 6.82739 2.15011 6.28153 2.48679 5.94485V5.94485C2.65493 5.77672 2.88504 5.68549 3.12271 5.69274L4.11942 5.72318C4.3951 5.73159 4.66202 5.62578 4.85705 5.43075L7.81174 2.47605C7.93988 2.34791 7.93988 2.14015 7.81174 2.01201V2.01201C7.6836 1.88387 7.6836 1.67611 7.81174 1.54797L8.01627 1.34345C8.25736 1.10236 8.64825 1.10236 8.88935 1.34345L12.6567 5.11076C12.8978 5.35185 12.8978 5.74275 12.6567 5.98384L12.4521 6.18836C12.324 6.3165 12.1162 6.3165 11.9881 6.18836V6.18836C11.86 6.06022 11.6522 6.06022 11.5241 6.18836L8.56936 9.14306C8.37433 9.33809 8.26851 9.605 8.27693 9.88068L8.30736 10.8774C8.31462 11.1151 8.22339 11.3452 8.05526 11.5133V11.5133C7.71858 11.85 7.17272 11.85 6.83604 11.5133L4.66142 9.33869ZM4.66142 9.33869L1.22706 12.773" stroke="white" stroke-width="2" stroke-linecap="round"/>
</g>
<defs>
<clipPath id="clip0_2_317">
<rect width="14" height="14" fill="white"/>
</clipPath>
</defs>
</svg>
