<svg width="14" height="14" viewBox="0 0 14 14" fill="none" xmlns="http://www.w3.org/2000/svg">
<path d="M7 8.68274H4.26632C3.84309 8.68274 3.5 8.33965 3.5 7.91642V7.91642C3.5 7.70506 3.58729 7.50309 3.74124 7.35826L4.35186 6.78382C4.55275 6.59484 4.66667 6.33128 4.66667 6.05547V2.3892C4.66667 2.22812 4.53608 2.09753 4.375 2.09753V2.09753C4.21392 2.09753 4.08333 1.96695 4.08333 1.80587V1.54877C4.08333 1.24569 4.32903 1 4.6321 1L9.3679 1C9.67098 1 9.91667 1.24569 9.91667 1.54877V1.80587C9.91667 1.96695 9.78608 2.09753 9.625 2.09753V2.09753C9.46392 2.09753 9.33333 2.22812 9.33333 2.3892V6.05547C9.33333 6.33128 9.44725 6.59484 9.64814 6.78382L10.2588 7.35826C10.4127 7.50309 10.5 7.70506 10.5 7.91642V7.91642C10.5 8.33965 10.1569 8.68274 9.73368 8.68274H7ZM7 8.68274L7 13" stroke="white" stroke-width="2" stroke-linecap="round"/>
</svg>
